<svg xmlns="http://www.w3.org/2000/svg" viewBox="0 -0.5 49 15" shape-rendering="crispEdges">
<metadata>Made with Pixels to Svg https://codepen.io/shshaw/pen/XbxvNj</metadata>
<path stroke="#3b4658" d="M2 2h44M2 3h1M46 3h1M2 4h1M46 4h1M2 5h1M5 5h2M9 5h3M14 5h2M46 5h1M2 6h1M5 6h1M7 6h1M10 6h1M13 6h1M16 6h1M46 6h1M2 7h1M5 7h2M10 7h1M13 7h1M16 7h1M46 7h1M2 8h1M5 8h1M7 8h1M10 8h1M13 8h1M16 8h1M46 8h1M2 9h1M5 9h3M9 9h3M14 9h2M46 9h1M2 10h1M46 10h1M2 11h1M46 11h1" />
<path stroke="#ffffff" d="M3 3h43M3 4h43M3 5h2M7 5h2M12 5h2M16 5h30M3 6h2M6 6h1M8 6h2M11 6h2M14 6h2M17 6h29M3 7h2M7 7h3M11 7h2M14 7h2M17 7h29M3 8h2M6 8h1M8 8h2M11 8h2M14 8h2M17 8h28M3 9h2M8 9h1M12 9h2M16 9h28" />
<path stroke="#dcddd8" d="M45 8h1M44 9h2M3 10h43M3 11h43" />
<path stroke="#19173c" d="M2 12h44" />
</svg>