<svg xmlns="http://www.w3.org/2000/svg" viewBox="0 -0.5 64 64" shape-rendering="crispEdges">
<metadata>Made with Pixels to Svg https://codepen.io/shshaw/pen/XbxvNj</metadata>
<path stroke="#19173c" d="M2 1h3M59 1h3M1 2h5M58 2h5M1 3h6M57 3h6M1 4h7M56 4h7M2 5h7M55 5h7M3 6h7M54 6h7M4 7h7M53 7h7M5 8h7M52 8h7M6 9h7M51 9h7M7 10h7M50 10h7M8 11h7M49 11h7M9 12h7M48 12h7M10 13h7M47 13h7M11 14h7M46 14h7M12 15h7M45 15h7M13 16h7M44 16h7M14 17h7M43 17h7M15 18h7M42 18h7M16 19h7M41 19h7M17 20h7M40 20h7M18 21h7M39 21h7M19 22h7M38 22h7M20 23h7M37 23h7M21 24h7M36 24h7M22 25h7M35 25h7M23 26h7M34 26h7M24 27h7M33 27h7M25 28h14M26 29h12M27 30h10M28 31h8M28 32h8M27 33h10M26 34h12M25 35h14M24 36h7M33 36h7M23 37h7M34 37h7M22 38h7M35 38h7M21 39h7M36 39h7M20 40h7M37 40h7M19 41h7M38 41h7M18 42h7M39 42h7M17 43h7M40 43h7M16 44h7M41 44h7M15 45h7M42 45h7M14 46h7M43 46h7M13 47h7M44 47h7M12 48h7M45 48h7M11 49h7M46 49h7M10 50h7M47 50h7M9 51h7M48 51h7M8 52h7M49 52h7M7 53h7M50 53h7M6 54h7M51 54h7M5 55h7M52 55h7M4 56h7M53 56h7M3 57h7M54 57h7M2 58h7M55 58h7M1 59h7M56 59h7M1 60h6M57 60h6M1 61h5M58 61h5M2 62h3M59 62h3" />
</svg>