<svg xmlns="http://www.w3.org/2000/svg" viewBox="0 -0.5 49 15" shape-rendering="crispEdges">
<metadata>Made with Pixels to Svg https://codepen.io/shshaw/pen/XbxvNj</metadata>
<path stroke="#3b4658" d="M2 2h44M2 3h1M46 3h1M2 4h1M46 4h1M2 5h1M6 5h2M10 5h2M14 5h1M17 5h1M19 5h3M24 5h1M29 5h2M32 5h3M46 5h1M2 6h1M5 6h1M9 6h1M12 6h1M14 6h2M17 6h1M20 6h1M23 6h1M25 6h1M28 6h1M33 6h1M46 6h1M2 7h1M5 7h1M9 7h1M12 7h1M14 7h1M16 7h2M20 7h1M23 7h3M28 7h1M33 7h1M46 7h1M2 8h1M5 8h1M9 8h1M12 8h1M14 8h1M17 8h1M20 8h1M22 8h1M26 8h1M28 8h1M33 8h1M46 8h1M2 9h1M6 9h2M10 9h2M14 9h1M17 9h1M20 9h1M22 9h1M26 9h1M29 9h2M33 9h1M46 9h1M2 10h1M46 10h1M2 11h1M46 11h1" />
<path stroke="#ffffff" d="M3 3h43M3 4h43M3 5h3M8 5h2M12 5h2M15 5h2M18 5h1M22 5h2M25 5h4M31 5h1M35 5h11M3 6h2M6 6h3M10 6h2M13 6h1M16 6h1M18 6h2M21 6h2M24 6h1M26 6h2M29 6h4M34 6h12M3 7h2M6 7h3M10 7h2M13 7h1M15 7h1M18 7h2M21 7h2M26 7h2M29 7h4M34 7h12M3 8h2M6 8h3M10 8h2M13 8h1M15 8h2M18 8h2M21 8h1M23 8h3M27 8h1M29 8h4M34 8h11M3 9h3M8 9h2M12 9h2M15 9h2M18 9h2M21 9h1M23 9h3M27 9h2M31 9h2M34 9h10" />
<path stroke="#dcddd8" d="M45 8h1M44 9h2M3 10h43M3 11h43" />
<path stroke="#19173c" d="M2 12h44" />
</svg>