<svg xmlns="http://www.w3.org/2000/svg" viewBox="0 -0.5 49 15" shape-rendering="crispEdges">
<metadata>Made with Pixels to Svg https://codepen.io/shshaw/pen/XbxvNj</metadata>
<path stroke="#19173c" d="M2 2h44M2 3h1M46 3h1M2 4h1M46 4h1M2 5h1M46 5h1M2 6h1M46 6h1M2 7h1M46 7h1M2 8h1M45 8h2M2 9h1M44 9h3M2 10h45M2 11h45M2 12h44" />
<path stroke="#a3b1b2" d="M3 3h42" />
<path stroke="#3b4658" d="M45 3h1M3 4h43M3 5h2M6 5h1M8 5h2M12 5h2M15 5h3M19 5h1M23 5h23M3 6h2M6 6h1M8 6h1M10 6h2M13 6h1M16 6h1M19 6h1M21 6h25M3 7h2M8 7h1M10 7h2M13 7h1M15 7h1M17 7h1M19 7h1M22 7h24M3 8h2M6 8h1M8 8h1M10 8h2M13 8h1M15 8h3M19 8h1M21 8h24M3 9h2M6 9h1M8 9h2M12 9h2M15 9h3M19 9h1M23 9h21" />
<path stroke="#d4c9b5" d="M5 5h1M7 5h1M10 5h2M14 5h1M18 5h1M20 5h3M5 6h1M7 6h1M9 6h1M12 6h1M14 6h2M17 6h2M20 6h1M5 7h3M9 7h1M12 7h1M14 7h1M16 7h1M18 7h1M20 7h2M5 8h1M7 8h1M9 8h1M12 8h1M14 8h1M18 8h1M20 8h1M5 9h1M7 9h1M10 9h2M14 9h1M18 9h1M20 9h3" />
</svg>