<svg xmlns="http://www.w3.org/2000/svg" viewBox="0 -0.5 64 64" shape-rendering="crispEdges">
<metadata>Made with Pixels to Svg https://codepen.io/shshaw/pen/XbxvNj</metadata>
<path stroke="#3b4658" d="M13 11h38M12 12h2M50 12h2M12 13h40M13 14h39M14 15h38M13 28h38M12 29h2M50 29h2M12 30h40M13 31h39M14 32h38M13 46h38M12 47h2M50 47h2M12 48h40M13 49h39M14 50h38" />
<path stroke="#a3b1b2" d="M14 12h36M14 29h36M14 47h36" />
<path stroke="#19173c" d="M12 14h1M12 15h2M12 16h40M13 17h38M12 31h1M12 32h2M12 33h40M13 34h38M12 49h1M12 50h2M12 51h40M13 52h38" />
</svg>