<svg xmlns="http://www.w3.org/2000/svg" viewBox="0 -0.5 64 64" shape-rendering="crispEdges">
<metadata>Made with Pixels to Svg https://codepen.io/shshaw/pen/XbxvNj</metadata>
<path stroke="#19173c" d="M1 1h62M1 2h62M1 3h62M1 4h62M1 5h62M1 6h6M58 6h5M1 7h5M58 7h5M1 8h5M58 8h5M1 9h5M58 9h5M1 10h5M58 10h5M1 11h5M58 11h5M1 12h5M58 12h5M1 13h5M58 13h5M1 14h5M12 14h1M58 14h5M1 15h5M12 15h2M58 15h5M1 16h5M12 16h40M58 16h5M1 17h5M13 17h38M58 17h5M1 18h5M58 18h5M1 19h5M58 19h5M1 20h5M58 20h5M1 21h5M58 21h5M1 22h5M58 22h5M1 23h5M58 23h5M1 24h5M58 24h5M1 25h5M58 25h5M1 26h5M58 26h5M1 27h5M58 27h5M1 28h5M58 28h5M1 29h5M58 29h5M1 30h5M58 30h5M1 31h5M12 31h1M58 31h5M1 32h5M12 32h2M58 32h5M1 33h5M12 33h40M58 33h5M1 34h5M13 34h38M58 34h5M1 35h5M58 35h5M1 36h5M58 36h5M1 37h5M58 37h5M1 38h5M58 38h5M1 39h5M58 39h5M1 40h5M58 40h5M1 41h5M58 41h5M1 42h5M58 42h5M1 43h5M58 43h5M1 44h5M58 44h5M1 45h5M58 45h5M1 46h5M58 46h5M1 47h5M58 47h5M1 48h5M58 48h5M1 49h5M12 49h1M58 49h5M1 50h5M12 50h2M58 50h5M1 51h5M12 51h40M58 51h5M1 52h5M13 52h38M58 52h5M1 53h5M58 53h5M1 54h5M58 54h5M1 55h5M58 55h5M1 56h5M58 56h5M1 57h6M58 57h5M1 58h62M1 59h62M1 60h62M1 61h62M1 62h62" />
<path stroke="#ffffff" d="M7 6h51M6 7h52M6 8h52M6 9h52M6 10h52M6 11h7M51 11h7M6 12h6M52 12h6M6 13h6M52 13h6M6 14h6M52 14h6M6 15h6M52 15h6M6 16h6M52 16h6M6 17h7M51 17h7M6 18h52M6 19h52M6 20h52M6 21h52M6 22h52M6 23h52M6 24h52M6 25h52M6 26h52M6 27h52M6 28h7M51 28h7M6 29h6M52 29h6M6 30h6M52 30h6M6 31h6M52 31h6M6 32h6M52 32h6M6 33h6M52 33h6M6 34h7M51 34h7M6 35h52M6 36h52M6 37h52M6 38h52M6 39h52M6 40h52M6 41h52M6 42h52M6 43h52M6 44h52M6 45h52M6 46h7M51 46h7M6 47h6M52 47h6M6 48h6M52 48h6M6 49h6M52 49h6M6 50h6M52 50h6M6 51h6M52 51h6M6 52h7M51 52h7M6 53h52M6 54h52M6 55h52M6 56h52M7 57h51" />
<path stroke="#3b4658" d="M13 11h38M12 12h2M50 12h2M12 13h40M13 14h39M14 15h38M13 28h38M12 29h2M50 29h2M12 30h40M13 31h39M14 32h38M13 46h38M12 47h2M50 47h2M12 48h40M13 49h39M14 50h38" />
<path stroke="#a3b1b2" d="M14 12h36M14 29h36M14 47h36" />
</svg>