<svg xmlns="http://www.w3.org/2000/svg" viewBox="0 -0.5 49 15" shape-rendering="crispEdges">
<metadata>Made with Pixels to Svg https://codepen.io/shshaw/pen/XbxvNj</metadata>
<path stroke="#19173c" d="M2 2h44M2 3h1M46 3h1M2 4h1M46 4h1M2 5h1M46 5h1M2 6h1M46 6h1M2 7h1M46 7h1M2 8h1M45 8h2M2 9h1M44 9h3M2 10h45M2 11h45M2 12h44" />
<path stroke="#a3b1b2" d="M3 3h42" />
<path stroke="#3b4658" d="M45 3h1M3 4h43M3 5h2M7 5h2M12 5h1M15 5h6M22 5h3M27 5h1M29 5h3M33 5h13M3 6h2M6 6h1M8 6h1M10 6h3M14 6h1M16 6h4M21 6h3M25 6h3M29 6h3M33 6h13M3 7h2M7 7h2M11 7h2M15 7h4M20 7h4M25 7h4M30 7h1M32 7h14M3 8h2M6 8h1M8 8h1M10 8h3M14 8h4M19 8h5M25 8h4M30 8h1M32 8h13M3 9h2M6 9h1M8 9h1M12 9h1M14 9h3M18 9h7M27 9h3M31 9h13" />
<path stroke="#d4c9b5" d="M5 5h2M9 5h3M13 5h2M21 5h1M25 5h2M28 5h1M32 5h1M5 6h1M7 6h1M9 6h1M13 6h1M15 6h1M20 6h1M24 6h1M28 6h1M32 6h1M5 7h2M9 7h2M13 7h2M19 7h1M24 7h1M29 7h1M31 7h1M5 8h1M7 8h1M9 8h1M13 8h1M18 8h1M24 8h1M29 8h1M31 8h1M5 9h1M7 9h1M9 9h3M13 9h1M17 9h1M25 9h2M30 9h1" />
</svg>