<svg xmlns="http://www.w3.org/2000/svg" viewBox="0 -0.5 78 37" shape-rendering="crispEdges">
<metadata>Made with Pixels to Svg https://codepen.io/shshaw/pen/XbxvNj</metadata>
<path stroke="#3b4658" d="M3 2h68M2 3h1M71 3h2M2 4h1M73 4h1M2 5h1M74 5h1M2 6h1M74 6h1M2 7h1M75 7h1M2 8h1M75 8h1M2 9h1M75 9h1M2 10h1M75 10h1M2 11h1M75 11h1M2 12h1M75 12h1M2 13h1M75 13h1M2 14h1M75 14h1M2 15h1M75 15h1M2 16h58M75 16h1M2 17h58M75 17h1M2 18h58M3 19h56" />
<path stroke="#ffffff" d="M3 3h68M3 4h70M3 5h71M3 6h5M10 6h4M16 6h3M20 6h3M24 6h2M27 6h3M31 6h2M36 6h7M44 6h5M53 6h2M59 6h15M3 7h4M8 7h2M11 7h2M14 7h2M17 7h2M20 7h3M24 7h2M27 7h3M31 7h3M35 7h8M44 7h5M50 7h5M56 7h19M3 8h4M8 8h5M14 8h2M17 8h2M21 8h1M24 8h2M28 8h1M31 8h3M35 8h8M44 8h5M50 8h5M56 8h19M3 9h5M10 9h3M17 9h2M20 9h1M22 9h1M24 9h2M27 9h1M29 9h1M31 9h3M35 9h8M44 9h5M51 9h4M57 9h18M3 10h7M11 10h2M14 10h2M17 10h2M20 10h3M24 10h2M27 10h3M31 10h3M35 10h8M44 10h5M50 10h5M56 10h19M3 11h4M8 11h2M11 11h2M14 11h2M17 11h2M20 11h3M24 11h2M27 11h3M31 11h3M35 11h8M44 11h5M50 11h5M56 11h19M3 12h5M10 12h3M14 12h2M17 12h2M20 12h3M24 12h2M27 12h3M31 12h2M36 12h7M47 12h2M53 12h2M59 12h16M3 13h72M3 14h71M59 15h14M60 20h14M60 21h15M59 22h16M3 23h72M3 24h72M3 25h72M3 26h72M3 27h72M3 28h72M3 29h72M3 30h70M3 31h69" />
<path stroke="#19173c" d="M8 6h2M14 6h2M19 6h1M23 6h1M26 6h1M30 6h1M33 6h3M43 6h1M49 6h4M55 6h4M7 7h1M10 7h1M13 7h1M16 7h1M19 7h1M23 7h1M26 7h1M30 7h1M34 7h1M43 7h1M49 7h1M55 7h1M7 8h1M13 8h1M16 8h1M19 8h2M22 8h2M26 8h2M29 8h2M34 8h1M43 8h1M49 8h1M55 8h1M8 9h2M13 9h4M19 9h1M21 9h1M23 9h1M26 9h1M28 9h1M30 9h1M34 9h1M43 9h1M49 9h2M55 9h2M10 10h1M13 10h1M16 10h1M19 10h1M23 10h1M26 10h1M30 10h1M34 10h1M43 10h1M49 10h1M55 10h1M7 11h1M10 11h1M13 11h1M16 11h1M19 11h1M23 11h1M26 11h1M30 11h1M34 11h1M43 11h1M49 11h1M55 11h1M8 12h2M13 12h1M16 12h1M19 12h1M23 12h1M26 12h1M30 12h1M33 12h3M43 12h4M49 12h4M55 12h4M60 18h15M2 19h1M59 19h1M75 19h1M2 20h58M75 20h1M2 21h57M75 21h1M2 22h1M75 22h1M2 23h1M75 23h1M2 24h1M75 24h1M2 25h1M75 25h1M2 26h1M75 26h1M2 27h1M75 27h1M2 28h1M75 28h1M2 29h1M75 29h1M2 30h1M74 30h1M2 31h1M74 31h1M2 32h1M73 32h1M2 33h1M71 33h2M3 34h68" />
<path stroke="#dcddd8" d="M74 14h1M73 15h2M60 16h15M60 17h15M60 19h15M74 20h1M59 21h1M3 22h56M73 30h1M72 31h2M3 32h70M3 33h68" />
<path stroke="#a3b1b2" d="M3 15h56" />
</svg>